<svg width="376" height="52" viewBox="0 0 376 52" fill="none" xmlns="http://www.w3.org/2000/svg">
<rect x="0.25" y="0.25" width="179.5" height="51.5" rx="9.75" stroke="black" stroke-width="0.5"/>
<path d="M29.633 11.3416C27.976 11.8906 26.405 12.4456 25.252 13.5916C24.099 14.7376 23.49 16.4486 23.682 18.9306C23.709 19.3256 24.144 19.6416 24.538 19.5546C26.259 19.1746 27.946 18.5086 29.138 17.2726C30.331 16.0356 30.946 14.2156 30.555 11.8796C30.456 11.3376 30.045 11.2246 29.633 11.3416ZM19.433 19.9096C20.293 19.9096 21.151 20.2726 22.013 20.6956C22.875 21.1176 23.708 21.6316 24.703 21.6316C25.828 21.5266 26.887 21.0456 27.766 20.6846C28.783 20.2706 29.807 19.9096 30.676 19.9096C32.246 19.9096 33.924 20.8956 34.946 21.9446C33.014 23.6246 31.379 25.5986 31.379 27.8326C31.391 30.8546 33.388 32.5076 35.496 33.9676C35.0822 35.6743 34.2984 37.2693 33.2 38.6396C32.046 40.0536 30.675 40.9216 29.62 40.9216C28.723 40.9216 27.956 40.6336 27.183 40.2976C26.411 39.9606 25.639 39.5436 24.702 39.5436C23.765 39.5436 22.93 39.9476 22.067 40.2866C21.204 40.6256 20.33 40.9216 19.432 40.9216C19.037 40.9216 18.309 40.5946 17.522 39.8666C16.734 39.1386 15.88 38.0526 15.117 36.7446C13.593 34.1276 12.406 30.6066 12.406 27.1436C12.34 23.0166 15.854 19.9166 19.433 19.9096Z" fill="black"/>
<path d="M45.6059 19.88V12.124H47.8459C48.4619 12.124 48.9799 12.2127 49.3999 12.39C49.8199 12.558 50.1605 12.81 50.4219 13.146C50.6925 13.4727 50.8839 13.874 50.9959 14.35C51.1172 14.8167 51.1779 15.3487 51.1779 15.946C51.1779 16.562 51.1125 17.0893 50.9819 17.528C50.8605 17.9573 50.7019 18.3167 50.5059 18.606C50.3099 18.8953 50.0859 19.124 49.8339 19.292C49.5912 19.46 49.3439 19.5907 49.0919 19.684C48.8399 19.768 48.6019 19.824 48.3779 19.852C48.1539 19.8707 47.9672 19.88 47.8179 19.88H45.6059ZM44.2759 11.004V21H47.7059C48.5365 21 49.2552 20.8833 49.8619 20.65C50.4685 20.4167 50.9679 20.0807 51.3599 19.642C51.7519 19.194 52.0412 18.648 52.2279 18.004C52.4145 17.3507 52.5079 16.604 52.5079 15.764C52.5079 14.1587 52.0925 12.964 51.2619 12.18C50.4312 11.396 49.2459 11.004 47.7059 11.004H44.2759ZM56.0953 17.388C56.0953 16.9493 56.1513 16.562 56.2633 16.226C56.3846 15.8807 56.548 15.5913 56.7533 15.358C56.9586 15.1247 57.1966 14.9473 57.4673 14.826C57.7473 14.7047 58.0413 14.644 58.3493 14.644C58.6573 14.644 58.9466 14.7047 59.2173 14.826C59.4973 14.9473 59.74 15.1247 59.9453 15.358C60.1506 15.5913 60.3093 15.8807 60.4213 16.226C60.5426 16.562 60.6033 16.9493 60.6033 17.388C60.6033 17.8267 60.5426 18.2187 60.4213 18.564C60.3093 18.9 60.1506 19.1847 59.9453 19.418C59.74 19.642 59.4973 19.8147 59.2173 19.936C58.9466 20.0573 58.6573 20.118 58.3493 20.118C58.0413 20.118 57.7473 20.0573 57.4673 19.936C57.1966 19.8147 56.9586 19.642 56.7533 19.418C56.548 19.1847 56.3846 18.9 56.2633 18.564C56.1513 18.2187 56.0953 17.8267 56.0953 17.388ZM54.8353 17.388C54.8353 17.92 54.91 18.4147 55.0593 18.872C55.2086 19.3293 55.4326 19.7307 55.7313 20.076C56.03 20.412 56.3986 20.678 56.8373 20.874C57.276 21.0607 57.78 21.154 58.3493 21.154C58.928 21.154 59.432 21.0607 59.8613 20.874C60.3 20.678 60.6686 20.412 60.9673 20.076C61.266 19.7307 61.49 19.3293 61.6393 18.872C61.7886 18.4147 61.8633 17.92 61.8633 17.388C61.8633 16.856 61.7886 16.3613 61.6393 15.904C61.49 15.4373 61.266 15.036 60.9673 14.7C60.6686 14.3547 60.3 14.084 59.8613 13.888C59.432 13.692 58.928 13.594 58.3493 13.594C57.78 13.594 57.276 13.692 56.8373 13.888C56.3986 14.084 56.03 14.3547 55.7313 14.7C55.4326 15.036 55.2086 15.4373 55.0593 15.904C54.91 16.3613 54.8353 16.856 54.8353 17.388ZM71.7244 21L74.0344 13.762H72.8024L71.1784 19.684H71.1504L69.6384 13.762H68.3364L66.8804 19.684H66.8524L65.2144 13.762H63.8984L66.2224 21H67.5104L68.9664 15.246H68.9944L70.4644 21H71.7244ZM76.4557 13.762V21H77.6457V16.912C77.6457 16.5853 77.6877 16.2867 77.7717 16.016C77.8651 15.736 78.0004 15.4933 78.1777 15.288C78.3551 15.0827 78.5744 14.924 78.8357 14.812C79.1064 14.7 79.4237 14.644 79.7877 14.644C80.2451 14.644 80.6044 14.7747 80.8657 15.036C81.1271 15.2973 81.2577 15.652 81.2577 16.1V21H82.4477V16.24C82.4477 15.848 82.4057 15.4933 82.3217 15.176C82.2471 14.8493 82.1117 14.5693 81.9157 14.336C81.7197 14.1027 81.4631 13.9207 81.1457 13.79C80.8284 13.6593 80.4317 13.594 79.9557 13.594C78.8824 13.594 78.0984 14.0327 77.6037 14.91H77.5757V13.762H76.4557ZM85.595 11.004V21H86.785V11.004H85.595ZM90.7865 17.388C90.7865 16.9493 90.8425 16.562 90.9545 16.226C91.0759 15.8807 91.2392 15.5913 91.4445 15.358C91.6499 15.1247 91.8879 14.9473 92.1585 14.826C92.4385 14.7047 92.7325 14.644 93.0405 14.644C93.3485 14.644 93.6379 14.7047 93.9085 14.826C94.1885 14.9473 94.4312 15.1247 94.6365 15.358C94.8419 15.5913 95.0005 15.8807 95.1125 16.226C95.2339 16.562 95.2945 16.9493 95.2945 17.388C95.2945 17.8267 95.2339 18.2187 95.1125 18.564C95.0005 18.9 94.8419 19.1847 94.6365 19.418C94.4312 19.642 94.1885 19.8147 93.9085 19.936C93.6379 20.0573 93.3485 20.118 93.0405 20.118C92.7325 20.118 92.4385 20.0573 92.1585 19.936C91.8879 19.8147 91.6499 19.642 91.4445 19.418C91.2392 19.1847 91.0759 18.9 90.9545 18.564C90.8425 18.2187 90.7865 17.8267 90.7865 17.388ZM89.5265 17.388C89.5265 17.92 89.6012 18.4147 89.7505 18.872C89.8999 19.3293 90.1239 19.7307 90.4225 20.076C90.7212 20.412 91.0899 20.678 91.5285 20.874C91.9672 21.0607 92.4712 21.154 93.0405 21.154C93.6192 21.154 94.1232 21.0607 94.5525 20.874C94.9912 20.678 95.3599 20.412 95.6585 20.076C95.9572 19.7307 96.1812 19.3293 96.3305 18.872C96.4799 18.4147 96.5545 17.92 96.5545 17.388C96.5545 16.856 96.4799 16.3613 96.3305 15.904C96.1812 15.4373 95.9572 15.036 95.6585 14.7C95.3599 14.3547 94.9912 14.084 94.5525 13.888C94.1232 13.692 93.6192 13.594 93.0405 13.594C92.4712 13.594 91.9672 13.692 91.5285 13.888C91.0899 14.084 90.7212 14.3547 90.4225 14.7C90.1239 15.036 89.8999 15.4373 89.7505 15.904C89.6012 16.3613 89.5265 16.856 89.5265 17.388ZM105.66 20.972C105.454 21.0933 105.17 21.154 104.806 21.154C104.498 21.154 104.25 21.07 104.064 20.902C103.886 20.7247 103.798 20.44 103.798 20.048C103.471 20.44 103.088 20.7247 102.65 20.902C102.22 21.07 101.754 21.154 101.25 21.154C100.923 21.154 100.61 21.1167 100.312 21.042C100.022 20.9673 99.7703 20.8507 99.5556 20.692C99.3409 20.5333 99.1683 20.328 99.0376 20.076C98.9163 19.8147 98.8556 19.502 98.8556 19.138C98.8556 18.7273 98.9256 18.3913 99.0656 18.13C99.2056 17.8687 99.3876 17.6587 99.6116 17.5C99.8449 17.332 100.106 17.206 100.396 17.122C100.694 17.038 100.998 16.968 101.306 16.912C101.632 16.8467 101.94 16.8 102.23 16.772C102.528 16.7347 102.79 16.688 103.014 16.632C103.238 16.5667 103.415 16.478 103.546 16.366C103.676 16.2447 103.742 16.072 103.742 15.848C103.742 15.5867 103.69 15.3767 103.588 15.218C103.494 15.0593 103.368 14.938 103.21 14.854C103.06 14.77 102.888 14.714 102.692 14.686C102.505 14.658 102.318 14.644 102.132 14.644C101.628 14.644 101.208 14.742 100.872 14.938C100.536 15.1247 100.354 15.484 100.326 16.016H99.1356C99.1543 15.568 99.2476 15.19 99.4156 14.882C99.5836 14.574 99.8076 14.3267 100.088 14.14C100.368 13.944 100.685 13.804 101.04 13.72C101.404 13.636 101.791 13.594 102.202 13.594C102.528 13.594 102.85 13.6173 103.168 13.664C103.494 13.7107 103.788 13.8087 104.05 13.958C104.311 14.098 104.521 14.2987 104.68 14.56C104.838 14.8213 104.918 15.162 104.918 15.582V19.306C104.918 19.586 104.932 19.7913 104.96 19.922C104.997 20.0527 105.109 20.118 105.296 20.118C105.398 20.118 105.52 20.0947 105.66 20.048V20.972ZM103.728 17.262C103.578 17.374 103.382 17.458 103.14 17.514C102.897 17.5607 102.64 17.6027 102.37 17.64C102.108 17.668 101.842 17.7053 101.572 17.752C101.301 17.7893 101.058 17.8547 100.844 17.948C100.629 18.0413 100.452 18.1767 100.312 18.354C100.181 18.522 100.116 18.7553 100.116 19.054C100.116 19.25 100.153 19.418 100.228 19.558C100.312 19.6887 100.414 19.796 100.536 19.88C100.666 19.964 100.816 20.0247 100.984 20.062C101.152 20.0993 101.329 20.118 101.516 20.118C101.908 20.118 102.244 20.0667 102.524 19.964C102.804 19.852 103.032 19.7167 103.21 19.558C103.387 19.39 103.518 19.2127 103.602 19.026C103.686 18.83 103.728 18.648 103.728 18.48V17.262ZM108.925 17.444C108.925 17.0893 108.962 16.744 109.037 16.408C109.112 16.072 109.233 15.7733 109.401 15.512C109.569 15.2507 109.793 15.0407 110.073 14.882C110.353 14.7233 110.694 14.644 111.095 14.644C111.506 14.644 111.856 14.7233 112.145 14.882C112.434 15.0313 112.668 15.232 112.845 15.484C113.032 15.736 113.167 16.03 113.251 16.366C113.335 16.6927 113.377 17.0333 113.377 17.388C113.377 17.724 113.335 18.0553 113.251 18.382C113.176 18.7087 113.05 19.0027 112.873 19.264C112.696 19.516 112.467 19.7213 112.187 19.88C111.907 20.0387 111.566 20.118 111.165 20.118C110.782 20.118 110.446 20.0433 110.157 19.894C109.877 19.7447 109.644 19.544 109.457 19.292C109.28 19.04 109.144 18.7553 109.051 18.438C108.967 18.1113 108.925 17.78 108.925 17.444ZM114.525 21V11.004H113.335V14.728H113.307C113.176 14.5133 113.013 14.336 112.817 14.196C112.63 14.0467 112.43 13.93 112.215 13.846C112 13.7527 111.786 13.6873 111.571 13.65C111.356 13.6127 111.156 13.594 110.969 13.594C110.418 13.594 109.933 13.6967 109.513 13.902C109.102 14.098 108.757 14.3687 108.477 14.714C108.206 15.05 108.001 15.4467 107.861 15.904C107.73 16.3613 107.665 16.8467 107.665 17.36C107.665 17.8733 107.735 18.3587 107.875 18.816C108.015 19.2733 108.22 19.6747 108.491 20.02C108.771 20.3653 109.116 20.6407 109.527 20.846C109.947 21.0513 110.437 21.154 110.997 21.154C111.501 21.154 111.963 21.0653 112.383 20.888C112.803 20.7107 113.111 20.4213 113.307 20.02H113.335V21H114.525ZM123.7 17.388C123.7 16.9493 123.756 16.562 123.868 16.226C123.99 15.8807 124.153 15.5913 124.358 15.358C124.564 15.1247 124.802 14.9473 125.072 14.826C125.352 14.7047 125.646 14.644 125.954 14.644C126.262 14.644 126.552 14.7047 126.822 14.826C127.102 14.9473 127.345 15.1247 127.55 15.358C127.756 15.5913 127.914 15.8807 128.026 16.226C128.148 16.562 128.208 16.9493 128.208 17.388C128.208 17.8267 128.148 18.2187 128.026 18.564C127.914 18.9 127.756 19.1847 127.55 19.418C127.345 19.642 127.102 19.8147 126.822 19.936C126.552 20.0573 126.262 20.118 125.954 20.118C125.646 20.118 125.352 20.0573 125.072 19.936C124.802 19.8147 124.564 19.642 124.358 19.418C124.153 19.1847 123.99 18.9 123.868 18.564C123.756 18.2187 123.7 17.8267 123.7 17.388ZM122.44 17.388C122.44 17.92 122.515 18.4147 122.664 18.872C122.814 19.3293 123.038 19.7307 123.336 20.076C123.635 20.412 124.004 20.678 124.442 20.874C124.881 21.0607 125.385 21.154 125.954 21.154C126.533 21.154 127.037 21.0607 127.466 20.874C127.905 20.678 128.274 20.412 128.572 20.076C128.871 19.7307 129.095 19.3293 129.244 18.872C129.394 18.4147 129.468 17.92 129.468 17.388C129.468 16.856 129.394 16.3613 129.244 15.904C129.095 15.4373 128.871 15.036 128.572 14.7C128.274 14.3547 127.905 14.084 127.466 13.888C127.037 13.692 126.533 13.594 125.954 13.594C125.385 13.594 124.881 13.692 124.442 13.888C124.004 14.084 123.635 14.3547 123.336 14.7C123.038 15.036 122.814 15.4373 122.664 15.904C122.515 16.3613 122.44 16.856 122.44 17.388ZM132.162 13.762V21H133.352V16.912C133.352 16.5853 133.394 16.2867 133.478 16.016C133.571 15.736 133.706 15.4933 133.884 15.288C134.061 15.0827 134.28 14.924 134.542 14.812C134.812 14.7 135.13 14.644 135.494 14.644C135.951 14.644 136.31 14.7747 136.572 15.036C136.833 15.2973 136.964 15.652 136.964 16.1V21H138.154V16.24C138.154 15.848 138.112 15.4933 138.028 15.176C137.953 14.8493 137.818 14.5693 137.622 14.336C137.426 14.1027 137.169 13.9207 136.852 13.79C136.534 13.6593 136.138 13.594 135.662 13.594C134.588 13.594 133.804 14.0327 133.31 14.91H133.282V13.762H132.162ZM148.069 13.762V11.592H146.879V13.762H145.647V14.812H146.879V19.418C146.879 19.754 146.912 20.0247 146.977 20.23C147.043 20.4353 147.141 20.594 147.271 20.706C147.411 20.818 147.589 20.8973 147.803 20.944C148.027 20.9813 148.293 21 148.601 21H149.511V19.95H148.965C148.779 19.95 148.625 19.9453 148.503 19.936C148.391 19.9173 148.303 19.8847 148.237 19.838C148.172 19.7913 148.125 19.726 148.097 19.642C148.079 19.558 148.069 19.446 148.069 19.306V14.812H149.511V13.762H148.069ZM152.123 11.004V21H153.313V16.912C153.313 16.5853 153.355 16.2867 153.439 16.016C153.533 15.736 153.668 15.4933 153.845 15.288C154.023 15.0827 154.242 14.924 154.503 14.812C154.774 14.7 155.091 14.644 155.455 14.644C155.913 14.644 156.272 14.7747 156.533 15.036C156.795 15.2973 156.925 15.652 156.925 16.1V21H158.115V16.24C158.115 15.848 158.073 15.4933 157.989 15.176C157.915 14.8493 157.779 14.5693 157.583 14.336C157.387 14.1027 157.131 13.9207 156.813 13.79C156.496 13.6593 156.099 13.594 155.623 13.594C155.409 13.594 155.185 13.6173 154.951 13.664C154.727 13.7107 154.508 13.7853 154.293 13.888C154.088 13.9813 153.901 14.1073 153.733 14.266C153.565 14.4153 153.435 14.602 153.341 14.826H153.313V11.004H152.123ZM166.219 16.688H162.061C162.079 16.408 162.14 16.1467 162.243 15.904C162.345 15.652 162.485 15.4327 162.663 15.246C162.84 15.0593 163.05 14.9147 163.293 14.812C163.545 14.7 163.825 14.644 164.133 14.644C164.431 14.644 164.702 14.7 164.945 14.812C165.197 14.9147 165.411 15.0593 165.589 15.246C165.775 15.4233 165.92 15.638 166.023 15.89C166.135 16.142 166.2 16.408 166.219 16.688ZM167.367 18.704H166.191C166.088 19.18 165.873 19.5347 165.547 19.768C165.229 20.0013 164.819 20.118 164.315 20.118C163.923 20.118 163.582 20.0527 163.293 19.922C163.003 19.7913 162.765 19.6187 162.579 19.404C162.392 19.18 162.257 18.928 162.173 18.648C162.089 18.3587 162.051 18.0553 162.061 17.738H167.479C167.497 17.2993 167.455 16.8373 167.353 16.352C167.259 15.8667 167.082 15.4187 166.821 15.008C166.569 14.5973 166.228 14.2613 165.799 14C165.379 13.7293 164.847 13.594 164.203 13.594C163.708 13.594 163.251 13.6873 162.831 13.874C162.42 14.0607 162.061 14.322 161.753 14.658C161.454 14.994 161.221 15.3907 161.053 15.848C160.885 16.3053 160.801 16.8093 160.801 17.36C160.819 17.9107 160.899 18.4193 161.039 18.886C161.188 19.3527 161.407 19.754 161.697 20.09C161.986 20.426 162.341 20.6873 162.761 20.874C163.19 21.0607 163.694 21.154 164.273 21.154C165.094 21.154 165.775 20.9487 166.317 20.538C166.858 20.1273 167.208 19.516 167.367 18.704Z" fill="black"/>
<path d="M67.5326 36.28L69.4686 30.952H69.5006L71.4046 36.28H67.5326ZM68.6686 29.576L64.2206 41H65.7726L67.0526 37.56H71.8846L73.1326 41H74.8126L70.3486 29.576H68.6686ZM77.0536 32.728V44.152H78.4136V39.896H78.4456C78.5949 40.1413 78.7762 40.3493 78.9896 40.52C79.2136 40.68 79.4482 40.808 79.6936 40.904C79.9389 41 80.1842 41.0693 80.4296 41.112C80.6856 41.1547 80.9149 41.176 81.1176 41.176C81.7469 41.176 82.2962 41.064 82.7656 40.84C83.2456 40.616 83.6402 40.312 83.9496 39.928C84.2696 39.5333 84.5042 39.0747 84.6536 38.552C84.8136 38.0293 84.8936 37.4747 84.8936 36.888C84.8936 36.3013 84.8136 35.7467 84.6536 35.224C84.4936 34.7013 84.2536 34.2427 83.9336 33.848C83.6242 33.4427 83.2296 33.1227 82.7496 32.888C82.2802 32.6533 81.7256 32.536 81.0856 32.536C80.5096 32.536 79.9816 32.6427 79.5016 32.856C79.0216 33.0587 78.6696 33.3893 78.4456 33.848H78.4136V32.728H77.0536ZM83.4536 36.792C83.4536 37.1973 83.4109 37.592 83.3256 37.976C83.2402 38.36 83.1016 38.7013 82.9096 39C82.7176 39.2987 82.4616 39.5387 82.1416 39.72C81.8322 39.9013 81.4429 39.992 80.9736 39.992C80.5042 39.992 80.1042 39.9067 79.7736 39.736C79.4429 39.5547 79.1709 39.32 78.9576 39.032C78.7549 38.744 78.6056 38.4133 78.5096 38.04C78.4136 37.656 78.3656 37.2613 78.3656 36.856C78.3656 36.472 78.4082 36.0933 78.4936 35.72C78.5896 35.3467 78.7389 35.016 78.9416 34.728C79.1442 34.4293 79.4056 34.1893 79.7256 34.008C80.0456 33.8267 80.4349 33.736 80.8936 33.736C81.3309 33.736 81.7096 33.8213 82.0296 33.992C82.3602 34.1627 82.6269 34.392 82.8296 34.68C83.0429 34.968 83.1976 35.2987 83.2936 35.672C83.4002 36.0347 83.4536 36.408 83.4536 36.792ZM87.8279 32.728V44.152H89.1879V39.896H89.2199C89.3693 40.1413 89.5506 40.3493 89.7639 40.52C89.9879 40.68 90.2226 40.808 90.4679 40.904C90.7133 41 90.9586 41.0693 91.2039 41.112C91.4599 41.1547 91.6893 41.176 91.8919 41.176C92.5213 41.176 93.0706 41.064 93.5399 40.84C94.0199 40.616 94.4146 40.312 94.7239 39.928C95.0439 39.5333 95.2786 39.0747 95.4279 38.552C95.5879 38.0293 95.6679 37.4747 95.6679 36.888C95.6679 36.3013 95.5879 35.7467 95.4279 35.224C95.2679 34.7013 95.0279 34.2427 94.7079 33.848C94.3986 33.4427 94.0039 33.1227 93.5239 32.888C93.0546 32.6533 92.4999 32.536 91.8599 32.536C91.2839 32.536 90.7559 32.6427 90.2759 32.856C89.7959 33.0587 89.4439 33.3893 89.2199 33.848H89.1879V32.728H87.8279ZM94.2279 36.792C94.2279 37.1973 94.1853 37.592 94.0999 37.976C94.0146 38.36 93.8759 38.7013 93.6839 39C93.4919 39.2987 93.2359 39.5387 92.9159 39.72C92.6066 39.9013 92.2173 39.992 91.7479 39.992C91.2786 39.992 90.8786 39.9067 90.5479 39.736C90.2173 39.5547 89.9453 39.32 89.7319 39.032C89.5293 38.744 89.3799 38.4133 89.2839 38.04C89.1879 37.656 89.1399 37.2613 89.1399 36.856C89.1399 36.472 89.1826 36.0933 89.2679 35.72C89.3639 35.3467 89.5133 35.016 89.7159 34.728C89.9186 34.4293 90.1799 34.1893 90.4999 34.008C90.8199 33.8267 91.2093 33.736 91.6679 33.736C92.1053 33.736 92.4839 33.8213 92.8039 33.992C93.1346 34.1627 93.4013 34.392 93.6039 34.68C93.8173 34.968 93.9719 35.2987 94.0679 35.672C94.1746 36.0347 94.2279 36.408 94.2279 36.792ZM111.129 32.92H112.569C112.548 32.2907 112.425 31.752 112.201 31.304C111.988 30.8453 111.689 30.4667 111.305 30.168C110.932 29.8693 110.495 29.6507 109.993 29.512C109.492 29.3733 108.948 29.304 108.361 29.304C107.839 29.304 107.327 29.3733 106.825 29.512C106.335 29.64 105.892 29.8427 105.497 30.12C105.113 30.3867 104.804 30.7333 104.569 31.16C104.335 31.576 104.217 32.072 104.217 32.648C104.217 33.1707 104.319 33.608 104.521 33.96C104.735 34.3013 105.012 34.584 105.353 34.808C105.705 35.0213 106.1 35.1973 106.537 35.336C106.975 35.464 107.417 35.5813 107.865 35.688C108.324 35.784 108.772 35.88 109.209 35.976C109.647 36.072 110.036 36.2 110.377 36.36C110.729 36.5093 111.007 36.7067 111.209 36.952C111.423 37.1973 111.529 37.5173 111.529 37.912C111.529 38.328 111.444 38.6693 111.273 38.936C111.103 39.2027 110.879 39.416 110.601 39.576C110.324 39.7253 110.009 39.832 109.657 39.896C109.316 39.96 108.975 39.992 108.633 39.992C108.207 39.992 107.791 39.9387 107.385 39.832C106.98 39.7253 106.623 39.56 106.313 39.336C106.015 39.112 105.769 38.8293 105.577 38.488C105.396 38.136 105.305 37.72 105.305 37.24H103.865C103.865 37.9333 103.988 38.536 104.233 39.048C104.489 39.5493 104.831 39.9653 105.257 40.296C105.695 40.616 106.196 40.856 106.761 41.016C107.337 41.176 107.945 41.256 108.585 41.256C109.108 41.256 109.631 41.192 110.153 41.064C110.687 40.9467 111.167 40.7547 111.593 40.488C112.02 40.2107 112.367 39.8587 112.633 39.432C112.911 38.9947 113.049 38.472 113.049 37.864C113.049 37.2987 112.943 36.8293 112.729 36.456C112.527 36.0827 112.249 35.7733 111.897 35.528C111.556 35.2827 111.167 35.0907 110.729 34.952C110.292 34.8027 109.844 34.6747 109.385 34.568C108.937 34.4613 108.495 34.3653 108.057 34.28C107.62 34.184 107.225 34.0667 106.873 33.928C106.532 33.7893 106.255 33.6133 106.041 33.4C105.839 33.176 105.737 32.888 105.737 32.536C105.737 32.1627 105.807 31.8533 105.945 31.608C106.095 31.352 106.287 31.1493 106.521 31C106.767 30.8507 107.044 30.744 107.353 30.68C107.663 30.616 107.977 30.584 108.297 30.584C109.087 30.584 109.732 30.7707 110.233 31.144C110.745 31.5067 111.044 32.0987 111.129 32.92ZM117.85 32.728V30.248H116.49V32.728H115.082V33.928H116.49V39.192C116.49 39.576 116.528 39.8853 116.602 40.12C116.677 40.3547 116.789 40.536 116.938 40.664C117.098 40.792 117.301 40.8827 117.546 40.936C117.802 40.9787 118.106 41 118.458 41H119.498V39.8H118.874C118.661 39.8 118.485 39.7947 118.346 39.784C118.218 39.7627 118.117 39.7253 118.042 39.672C117.968 39.6187 117.914 39.544 117.882 39.448C117.861 39.352 117.85 39.224 117.85 39.064V33.928H119.498V32.728H117.85ZM123.291 36.872C123.291 36.3707 123.355 35.928 123.483 35.544C123.622 35.1493 123.809 34.8187 124.043 34.552C124.278 34.2853 124.55 34.0827 124.859 33.944C125.179 33.8053 125.515 33.736 125.867 33.736C126.219 33.736 126.55 33.8053 126.859 33.944C127.179 34.0827 127.457 34.2853 127.691 34.552C127.926 34.8187 128.107 35.1493 128.235 35.544C128.374 35.928 128.443 36.3707 128.443 36.872C128.443 37.3733 128.374 37.8213 128.235 38.216C128.107 38.6 127.926 38.9253 127.691 39.192C127.457 39.448 127.179 39.6453 126.859 39.784C126.55 39.9227 126.219 39.992 125.867 39.992C125.515 39.992 125.179 39.9227 124.859 39.784C124.55 39.6453 124.278 39.448 124.043 39.192C123.809 38.9253 123.622 38.6 123.483 38.216C123.355 37.8213 123.291 37.3733 123.291 36.872ZM121.851 36.872C121.851 37.48 121.937 38.0453 122.107 38.568C122.278 39.0907 122.534 39.5493 122.875 39.944C123.217 40.328 123.638 40.632 124.139 40.856C124.641 41.0693 125.217 41.176 125.867 41.176C126.529 41.176 127.105 41.0693 127.595 40.856C128.097 40.632 128.518 40.328 128.859 39.944C129.201 39.5493 129.457 39.0907 129.627 38.568C129.798 38.0453 129.883 37.48 129.883 36.872C129.883 36.264 129.798 35.6987 129.627 35.176C129.457 34.6427 129.201 34.184 128.859 33.8C128.518 33.4053 128.097 33.096 127.595 32.872C127.105 32.648 126.529 32.536 125.867 32.536C125.217 32.536 124.641 32.648 124.139 32.872C123.638 33.096 123.217 33.4053 122.875 33.8C122.534 34.184 122.278 34.6427 122.107 35.176C121.937 35.6987 121.851 36.264 121.851 36.872ZM132.729 32.728V41H134.089V37.32C134.089 36.7867 134.142 36.3173 134.249 35.912C134.355 35.496 134.526 35.144 134.761 34.856C134.995 34.568 135.305 34.3493 135.689 34.2C136.073 34.0507 136.537 33.976 137.081 33.976V32.536C136.345 32.5147 135.737 32.664 135.257 32.984C134.777 33.304 134.371 33.8 134.041 34.472H134.009V32.728H132.729ZM144.858 36.072H140.106C140.127 35.752 140.196 35.4533 140.314 35.176C140.431 34.888 140.591 34.6373 140.794 34.424C140.996 34.2107 141.236 34.0453 141.514 33.928C141.802 33.8 142.122 33.736 142.474 33.736C142.815 33.736 143.124 33.8 143.402 33.928C143.69 34.0453 143.935 34.2107 144.138 34.424C144.351 34.6267 144.516 34.872 144.634 35.16C144.762 35.448 144.836 35.752 144.858 36.072ZM146.17 38.376H144.826C144.708 38.92 144.463 39.3253 144.09 39.592C143.727 39.8587 143.258 39.992 142.682 39.992C142.234 39.992 141.844 39.9173 141.514 39.768C141.183 39.6187 140.911 39.4213 140.698 39.176C140.484 38.92 140.33 38.632 140.234 38.312C140.138 37.9813 140.095 37.6347 140.106 37.272H146.298C146.319 36.7707 146.271 36.2427 146.154 35.688C146.047 35.1333 145.844 34.6213 145.546 34.152C145.258 33.6827 144.868 33.2987 144.378 33C143.898 32.6907 143.29 32.536 142.554 32.536C141.988 32.536 141.466 32.6427 140.986 32.856C140.516 33.0693 140.106 33.368 139.754 33.752C139.412 34.136 139.146 34.5893 138.954 35.112C138.762 35.6347 138.666 36.2107 138.666 36.84C138.687 37.4693 138.778 38.0507 138.938 38.584C139.108 39.1173 139.359 39.576 139.69 39.96C140.02 40.344 140.426 40.6427 140.906 40.856C141.396 41.0693 141.972 41.176 142.634 41.176C143.572 41.176 144.351 40.9413 144.97 40.472C145.588 40.0027 145.988 39.304 146.17 38.376Z" fill="black"/>
<rect x="196.25" y="0.25" width="179.5" height="51.5" rx="9.75" stroke="black" stroke-width="0.5"/>
<g clip-path="url(#clip0_133_5184)">
<path fill-rule="evenodd" clip-rule="evenodd" d="M226.147 24.3262L211.033 13.8402C209.743 12.9462 208 13.9202 208 15.5262V36.4702C208 38.1032 209.744 39.0522 211.033 38.1562L226.147 27.6702C227.284 26.9062 227.284 25.1162 226.147 24.3262Z" fill="black"/>
</g>
<path d="M275.563 19.754L275.913 21H276.753V15.736H272.371V16.856H275.563C275.582 17.3133 275.521 17.7427 275.381 18.144C275.241 18.536 275.031 18.8813 274.751 19.18C274.481 19.4693 274.145 19.698 273.743 19.866C273.342 20.034 272.88 20.118 272.357 20.118C271.797 20.118 271.303 20.0107 270.873 19.796C270.453 19.572 270.099 19.278 269.809 18.914C269.52 18.5407 269.301 18.116 269.151 17.64C269.002 17.1547 268.927 16.6507 268.927 16.128C268.927 15.596 268.993 15.078 269.123 14.574C269.254 14.0607 269.455 13.608 269.725 13.216C270.005 12.8147 270.36 12.4927 270.789 12.25C271.228 12.0073 271.751 11.886 272.357 11.886C272.731 11.886 273.081 11.9327 273.407 12.026C273.743 12.11 274.042 12.2407 274.303 12.418C274.565 12.5953 274.784 12.824 274.961 13.104C275.139 13.3747 275.26 13.7013 275.325 14.084H276.655C276.562 13.496 276.385 12.9967 276.123 12.586C275.871 12.166 275.554 11.8207 275.171 11.55C274.798 11.2793 274.369 11.0833 273.883 10.962C273.407 10.8313 272.899 10.766 272.357 10.766C271.564 10.766 270.869 10.9153 270.271 11.214C269.683 11.5033 269.189 11.8953 268.787 12.39C268.395 12.8847 268.097 13.4633 267.891 14.126C267.695 14.7793 267.597 15.47 267.597 16.198C267.597 16.8513 267.705 17.4813 267.919 18.088C268.134 18.6947 268.447 19.2313 268.857 19.698C269.268 20.1647 269.767 20.538 270.355 20.818C270.943 21.0887 271.611 21.224 272.357 21.224C272.945 21.224 273.529 21.112 274.107 20.888C274.686 20.6547 275.171 20.2767 275.563 19.754ZM284.83 16.688H280.672C280.691 16.408 280.752 16.1467 280.854 15.904C280.957 15.652 281.097 15.4327 281.274 15.246C281.452 15.0593 281.662 14.9147 281.904 14.812C282.156 14.7 282.436 14.644 282.744 14.644C283.043 14.644 283.314 14.7 283.556 14.812C283.808 14.9147 284.023 15.0593 284.2 15.246C284.387 15.4233 284.532 15.638 284.634 15.89C284.746 16.142 284.812 16.408 284.83 16.688ZM285.978 18.704H284.802C284.7 19.18 284.485 19.5347 284.158 19.768C283.841 20.0013 283.43 20.118 282.926 20.118C282.534 20.118 282.194 20.0527 281.904 19.922C281.615 19.7913 281.377 19.6187 281.19 19.404C281.004 19.18 280.868 18.928 280.784 18.648C280.7 18.3587 280.663 18.0553 280.672 17.738H286.09C286.109 17.2993 286.067 16.8373 285.964 16.352C285.871 15.8667 285.694 15.4187 285.432 15.008C285.18 14.5973 284.84 14.2613 284.41 14C283.99 13.7293 283.458 13.594 282.814 13.594C282.32 13.594 281.862 13.6873 281.442 13.874C281.032 14.0607 280.672 14.322 280.364 14.658C280.066 14.994 279.832 15.3907 279.664 15.848C279.496 16.3053 279.412 16.8093 279.412 17.36C279.431 17.9107 279.51 18.4193 279.65 18.886C279.8 19.3527 280.019 19.754 280.308 20.09C280.598 20.426 280.952 20.6873 281.372 20.874C281.802 21.0607 282.306 21.154 282.884 21.154C283.706 21.154 284.387 20.9487 284.928 20.538C285.47 20.1273 285.82 19.516 285.978 18.704ZM290.266 13.762V11.592H289.076V13.762H287.844V14.812H289.076V19.418C289.076 19.754 289.109 20.0247 289.174 20.23C289.239 20.4353 289.337 20.594 289.468 20.706C289.608 20.818 289.785 20.8973 290 20.944C290.224 20.9813 290.49 21 290.798 21H291.708V19.95H291.162C290.975 19.95 290.821 19.9453 290.7 19.936C290.588 19.9173 290.499 19.8847 290.434 19.838C290.369 19.7913 290.322 19.726 290.294 19.642C290.275 19.558 290.266 19.446 290.266 19.306V14.812H291.708V13.762H290.266ZM300.766 12.46V11.004H299.576V12.46H300.766ZM299.576 13.762V21H300.766V13.762H299.576ZM305.552 13.762V11.592H304.362V13.762H303.13V14.812H304.362V19.418C304.362 19.754 304.395 20.0247 304.46 20.23C304.525 20.4353 304.623 20.594 304.754 20.706C304.894 20.818 305.071 20.8973 305.286 20.944C305.51 20.9813 305.776 21 306.084 21H306.994V19.95H306.448C306.261 19.95 306.107 19.9453 305.986 19.936C305.874 19.9173 305.785 19.8847 305.72 19.838C305.655 19.7913 305.608 19.726 305.58 19.642C305.561 19.558 305.552 19.446 305.552 19.306V14.812H306.994V13.762H305.552ZM315.66 17.388C315.66 16.9493 315.716 16.562 315.828 16.226C315.95 15.8807 316.113 15.5913 316.318 15.358C316.524 15.1247 316.762 14.9473 317.032 14.826C317.312 14.7047 317.606 14.644 317.914 14.644C318.222 14.644 318.512 14.7047 318.782 14.826C319.062 14.9473 319.305 15.1247 319.51 15.358C319.716 15.5913 319.874 15.8807 319.986 16.226C320.108 16.562 320.168 16.9493 320.168 17.388C320.168 17.8267 320.108 18.2187 319.986 18.564C319.874 18.9 319.716 19.1847 319.51 19.418C319.305 19.642 319.062 19.8147 318.782 19.936C318.512 20.0573 318.222 20.118 317.914 20.118C317.606 20.118 317.312 20.0573 317.032 19.936C316.762 19.8147 316.524 19.642 316.318 19.418C316.113 19.1847 315.95 18.9 315.828 18.564C315.716 18.2187 315.66 17.8267 315.66 17.388ZM314.4 17.388C314.4 17.92 314.475 18.4147 314.624 18.872C314.774 19.3293 314.998 19.7307 315.296 20.076C315.595 20.412 315.964 20.678 316.402 20.874C316.841 21.0607 317.345 21.154 317.914 21.154C318.493 21.154 318.997 21.0607 319.426 20.874C319.865 20.678 320.234 20.412 320.532 20.076C320.831 19.7307 321.055 19.3293 321.204 18.872C321.354 18.4147 321.428 17.92 321.428 17.388C321.428 16.856 321.354 16.3613 321.204 15.904C321.055 15.4373 320.831 15.036 320.532 14.7C320.234 14.3547 319.865 14.084 319.426 13.888C318.997 13.692 318.493 13.594 317.914 13.594C317.345 13.594 316.841 13.692 316.402 13.888C315.964 14.084 315.595 14.3547 315.296 14.7C314.998 15.036 314.774 15.4373 314.624 15.904C314.475 16.3613 314.4 16.856 314.4 17.388ZM324.121 13.762V21H325.311V16.912C325.311 16.5853 325.353 16.2867 325.437 16.016C325.531 15.736 325.666 15.4933 325.843 15.288C326.021 15.0827 326.24 14.924 326.501 14.812C326.772 14.7 327.089 14.644 327.453 14.644C327.911 14.644 328.27 14.7747 328.531 15.036C328.793 15.2973 328.923 15.652 328.923 16.1V21H330.113V16.24C330.113 15.848 330.071 15.4933 329.987 15.176C329.913 14.8493 329.777 14.5693 329.581 14.336C329.385 14.1027 329.129 13.9207 328.811 13.79C328.494 13.6593 328.097 13.594 327.621 13.594C326.548 13.594 325.764 14.0327 325.269 14.91H325.241V13.762H324.121Z" fill="black"/>
<path d="M258.936 39.576L259.336 41H260.296V34.984H255.288V36.264H258.936C258.957 36.7867 258.888 37.2773 258.728 37.736C258.568 38.184 258.328 38.5787 258.008 38.92C257.698 39.2507 257.314 39.512 256.856 39.704C256.397 39.896 255.869 39.992 255.272 39.992C254.632 39.992 254.066 39.8693 253.576 39.624C253.096 39.368 252.69 39.032 252.36 38.616C252.029 38.1893 251.778 37.704 251.608 37.16C251.437 36.6053 251.352 36.0293 251.352 35.432C251.352 34.824 251.426 34.232 251.576 33.656C251.725 33.0693 251.954 32.552 252.264 32.104C252.584 31.6453 252.989 31.2773 253.48 31C253.981 30.7227 254.578 30.584 255.272 30.584C255.698 30.584 256.098 30.6373 256.472 30.744C256.856 30.84 257.197 30.9893 257.496 31.192C257.794 31.3947 258.045 31.656 258.248 31.976C258.45 32.2853 258.589 32.6587 258.664 33.096H260.184C260.077 32.424 259.874 31.8533 259.576 31.384C259.288 30.904 258.925 30.5093 258.488 30.2C258.061 29.8907 257.57 29.6667 257.016 29.528C256.472 29.3787 255.89 29.304 255.272 29.304C254.365 29.304 253.57 29.4747 252.888 29.816C252.216 30.1467 251.65 30.5947 251.192 31.16C250.744 31.7253 250.402 32.3867 250.168 33.144C249.944 33.8907 249.832 34.68 249.832 35.512C249.832 36.2587 249.954 36.9787 250.2 37.672C250.445 38.3653 250.802 38.9787 251.272 39.512C251.741 40.0453 252.312 40.472 252.984 40.792C253.656 41.1013 254.418 41.256 255.272 41.256C255.944 41.256 256.61 41.128 257.272 40.872C257.933 40.6053 258.488 40.1733 258.936 39.576ZM264.59 36.872C264.59 36.3707 264.654 35.928 264.782 35.544C264.921 35.1493 265.108 34.8187 265.342 34.552C265.577 34.2853 265.849 34.0827 266.158 33.944C266.478 33.8053 266.814 33.736 267.166 33.736C267.518 33.736 267.849 33.8053 268.158 33.944C268.478 34.0827 268.756 34.2853 268.99 34.552C269.225 34.8187 269.406 35.1493 269.534 35.544C269.673 35.928 269.742 36.3707 269.742 36.872C269.742 37.3733 269.673 37.8213 269.534 38.216C269.406 38.6 269.225 38.9253 268.99 39.192C268.756 39.448 268.478 39.6453 268.158 39.784C267.849 39.9227 267.518 39.992 267.166 39.992C266.814 39.992 266.478 39.9227 266.158 39.784C265.849 39.6453 265.577 39.448 265.342 39.192C265.108 38.9253 264.921 38.6 264.782 38.216C264.654 37.8213 264.59 37.3733 264.59 36.872ZM263.15 36.872C263.15 37.48 263.236 38.0453 263.406 38.568C263.577 39.0907 263.833 39.5493 264.174 39.944C264.516 40.328 264.937 40.632 265.438 40.856C265.94 41.0693 266.516 41.176 267.166 41.176C267.828 41.176 268.404 41.0693 268.894 40.856C269.396 40.632 269.817 40.328 270.158 39.944C270.5 39.5493 270.756 39.0907 270.926 38.568C271.097 38.0453 271.182 37.48 271.182 36.872C271.182 36.264 271.097 35.6987 270.926 35.176C270.756 34.6427 270.5 34.184 270.158 33.8C269.817 33.4053 269.396 33.096 268.894 32.872C268.404 32.648 267.828 32.536 267.166 32.536C266.516 32.536 265.94 32.648 265.438 32.872C264.937 33.096 264.516 33.4053 264.174 33.8C263.833 34.184 263.577 34.6427 263.406 35.176C263.236 35.6987 263.15 36.264 263.15 36.872ZM275.068 36.872C275.068 36.3707 275.132 35.928 275.26 35.544C275.399 35.1493 275.585 34.8187 275.82 34.552C276.055 34.2853 276.327 34.0827 276.636 33.944C276.956 33.8053 277.292 33.736 277.644 33.736C277.996 33.736 278.327 33.8053 278.636 33.944C278.956 34.0827 279.233 34.2853 279.468 34.552C279.703 34.8187 279.884 35.1493 280.012 35.544C280.151 35.928 280.22 36.3707 280.22 36.872C280.22 37.3733 280.151 37.8213 280.012 38.216C279.884 38.6 279.703 38.9253 279.468 39.192C279.233 39.448 278.956 39.6453 278.636 39.784C278.327 39.9227 277.996 39.992 277.644 39.992C277.292 39.992 276.956 39.9227 276.636 39.784C276.327 39.6453 276.055 39.448 275.82 39.192C275.585 38.9253 275.399 38.6 275.26 38.216C275.132 37.8213 275.068 37.3733 275.068 36.872ZM273.628 36.872C273.628 37.48 273.713 38.0453 273.884 38.568C274.055 39.0907 274.311 39.5493 274.652 39.944C274.993 40.328 275.415 40.632 275.916 40.856C276.417 41.0693 276.993 41.176 277.644 41.176C278.305 41.176 278.881 41.0693 279.372 40.856C279.873 40.632 280.295 40.328 280.636 39.944C280.977 39.5493 281.233 39.0907 281.404 38.568C281.575 38.0453 281.66 37.48 281.66 36.872C281.66 36.264 281.575 35.6987 281.404 35.176C281.233 34.6427 280.977 34.184 280.636 33.8C280.295 33.4053 279.873 33.096 279.372 32.872C278.881 32.648 278.305 32.536 277.644 32.536C276.993 32.536 276.417 32.648 275.916 32.872C275.415 33.096 274.993 33.4053 274.652 33.8C274.311 34.184 274.055 34.6427 273.884 35.176C273.713 35.6987 273.628 36.264 273.628 36.872ZM291.689 40.296V32.728H290.409V33.912H290.393C290.148 33.4533 289.807 33.112 289.369 32.888C288.932 32.6533 288.452 32.536 287.929 32.536C287.215 32.536 286.612 32.6747 286.121 32.952C285.631 33.2187 285.236 33.5653 284.937 33.992C284.639 34.408 284.425 34.8773 284.297 35.4C284.169 35.912 284.105 36.4133 284.105 36.904C284.105 37.4693 284.18 38.008 284.329 38.52C284.489 39.0213 284.724 39.464 285.033 39.848C285.343 40.2213 285.727 40.52 286.185 40.744C286.644 40.968 287.183 41.08 287.801 41.08C288.335 41.08 288.836 40.9627 289.305 40.728C289.785 40.4827 290.143 40.104 290.377 39.592H290.409V40.136C290.409 40.5947 290.361 41.016 290.265 41.4C290.18 41.784 290.036 42.1093 289.833 42.376C289.631 42.6533 289.375 42.8667 289.065 43.016C288.756 43.176 288.377 43.256 287.929 43.256C287.705 43.256 287.471 43.2293 287.225 43.176C286.98 43.1333 286.751 43.0587 286.537 42.952C286.335 42.8453 286.159 42.7067 286.009 42.536C285.871 42.3653 285.796 42.1573 285.785 41.912H284.425C284.447 42.36 284.564 42.7387 284.777 43.048C284.991 43.3573 285.257 43.608 285.577 43.8C285.908 43.992 286.271 44.1307 286.665 44.216C287.071 44.3013 287.465 44.344 287.849 44.344C289.172 44.344 290.143 44.008 290.761 43.336C291.38 42.664 291.689 41.6507 291.689 40.296ZM287.881 39.896C287.433 39.896 287.06 39.8053 286.761 39.624C286.463 39.432 286.223 39.1867 286.041 38.888C285.86 38.5787 285.732 38.2373 285.657 37.864C285.583 37.4907 285.545 37.1173 285.545 36.744C285.545 36.3493 285.588 35.9707 285.673 35.608C285.769 35.2453 285.913 34.9253 286.105 34.648C286.308 34.3707 286.564 34.152 286.873 33.992C287.183 33.8213 287.556 33.736 287.993 33.736C288.42 33.736 288.783 33.8213 289.081 33.992C289.38 34.1627 289.62 34.392 289.801 34.68C289.993 34.9573 290.132 35.272 290.217 35.624C290.303 35.976 290.345 36.3333 290.345 36.696C290.345 37.08 290.297 37.464 290.201 37.848C290.116 38.232 289.977 38.5787 289.785 38.888C289.593 39.1867 289.337 39.432 289.017 39.624C288.708 39.8053 288.329 39.896 287.881 39.896ZM295.111 29.576V41H296.471V29.576H295.111ZM305.612 36.072H300.86C300.881 35.752 300.95 35.4533 301.068 35.176C301.185 34.888 301.345 34.6373 301.548 34.424C301.75 34.2107 301.99 34.0453 302.268 33.928C302.556 33.8 302.876 33.736 303.228 33.736C303.569 33.736 303.878 33.8 304.156 33.928C304.444 34.0453 304.689 34.2107 304.892 34.424C305.105 34.6267 305.27 34.872 305.388 35.16C305.516 35.448 305.59 35.752 305.612 36.072ZM306.924 38.376H305.58C305.462 38.92 305.217 39.3253 304.844 39.592C304.481 39.8587 304.012 39.992 303.436 39.992C302.988 39.992 302.598 39.9173 302.268 39.768C301.937 39.6187 301.665 39.4213 301.452 39.176C301.238 38.92 301.084 38.632 300.988 38.312C300.892 37.9813 300.849 37.6347 300.86 37.272H307.052C307.073 36.7707 307.025 36.2427 306.908 35.688C306.801 35.1333 306.598 34.6213 306.3 34.152C306.012 33.6827 305.622 33.2987 305.132 33C304.652 32.6907 304.044 32.536 303.308 32.536C302.742 32.536 302.22 32.6427 301.74 32.856C301.27 33.0693 300.86 33.368 300.508 33.752C300.166 34.136 299.9 34.5893 299.708 35.112C299.516 35.6347 299.42 36.2107 299.42 36.84C299.441 37.4693 299.532 38.0507 299.692 38.584C299.862 39.1173 300.113 39.576 300.444 39.96C300.774 40.344 301.18 40.6427 301.66 40.856C302.15 41.0693 302.726 41.176 303.388 41.176C304.326 41.176 305.105 40.9413 305.724 40.472C306.342 40.0027 306.742 39.304 306.924 38.376ZM317.239 35.048V30.856H320.215C321.079 30.856 321.708 31.0373 322.103 31.4C322.508 31.752 322.711 32.2693 322.711 32.952C322.711 33.6347 322.508 34.1573 322.103 34.52C321.708 34.8827 321.079 35.0587 320.215 35.048H317.239ZM315.719 29.576V41H317.239V36.328H320.727C321.879 36.3387 322.748 36.0453 323.335 35.448C323.932 34.8507 324.231 34.0187 324.231 32.952C324.231 31.8853 323.932 31.0587 323.335 30.472C322.748 29.8747 321.879 29.576 320.727 29.576H315.719ZM327.24 29.576V41H328.6V29.576H327.24ZM339.325 40.968C339.09 41.1067 338.765 41.176 338.349 41.176C337.997 41.176 337.714 41.08 337.501 40.888C337.298 40.6853 337.197 40.36 337.197 39.912C336.823 40.36 336.386 40.6853 335.885 40.888C335.394 41.08 334.861 41.176 334.285 41.176C333.911 41.176 333.554 41.1333 333.213 41.048C332.882 40.9627 332.594 40.8293 332.349 40.648C332.103 40.4667 331.906 40.232 331.757 39.944C331.618 39.6453 331.549 39.288 331.549 38.872C331.549 38.4027 331.629 38.0187 331.789 37.72C331.949 37.4213 332.157 37.1813 332.413 37C332.679 36.808 332.978 36.664 333.309 36.568C333.65 36.472 333.997 36.392 334.349 36.328C334.722 36.2533 335.074 36.2 335.405 36.168C335.746 36.1253 336.045 36.072 336.301 36.008C336.557 35.9333 336.759 35.832 336.909 35.704C337.058 35.5653 337.133 35.368 337.133 35.112C337.133 34.8133 337.074 34.5733 336.957 34.392C336.85 34.2107 336.706 34.072 336.525 33.976C336.354 33.88 336.157 33.816 335.933 33.784C335.719 33.752 335.506 33.736 335.293 33.736C334.717 33.736 334.237 33.848 333.853 34.072C333.469 34.2853 333.261 34.696 333.229 35.304H331.869C331.89 34.792 331.997 34.36 332.189 34.008C332.381 33.656 332.637 33.3733 332.957 33.16C333.277 32.936 333.639 32.776 334.045 32.68C334.461 32.584 334.903 32.536 335.373 32.536C335.746 32.536 336.114 32.5627 336.477 32.616C336.85 32.6693 337.186 32.7813 337.485 32.952C337.783 33.112 338.023 33.3413 338.205 33.64C338.386 33.9387 338.477 34.328 338.477 34.808V39.064C338.477 39.384 338.493 39.6187 338.525 39.768C338.567 39.9173 338.695 39.992 338.909 39.992C339.026 39.992 339.165 39.9653 339.325 39.912V40.968ZM337.117 36.728C336.946 36.856 336.722 36.952 336.445 37.016C336.167 37.0693 335.874 37.1173 335.565 37.16C335.266 37.192 334.962 37.2347 334.653 37.288C334.343 37.3307 334.066 37.4053 333.821 37.512C333.575 37.6187 333.373 37.7733 333.213 37.976C333.063 38.168 332.989 38.4347 332.989 38.776C332.989 39 333.031 39.192 333.117 39.352C333.213 39.5013 333.33 39.624 333.469 39.72C333.618 39.816 333.789 39.8853 333.981 39.928C334.173 39.9707 334.375 39.992 334.589 39.992C335.037 39.992 335.421 39.9333 335.741 39.816C336.061 39.688 336.322 39.5333 336.525 39.352C336.727 39.16 336.877 38.9573 336.973 38.744C337.069 38.52 337.117 38.312 337.117 38.12V36.728ZM345.128 42.104C344.968 42.5093 344.808 42.8507 344.648 43.128C344.499 43.4053 344.328 43.6293 344.136 43.8C343.955 43.9813 343.747 44.1093 343.512 44.184C343.288 44.2693 343.027 44.312 342.728 44.312C342.568 44.312 342.408 44.3013 342.248 44.28C342.088 44.2587 341.934 44.2213 341.784 44.168V42.92C341.902 42.9733 342.035 43.016 342.184 43.048C342.344 43.0907 342.478 43.112 342.584 43.112C342.862 43.112 343.091 43.0427 343.272 42.904C343.464 42.776 343.608 42.5893 343.704 42.344L344.264 40.952L340.984 32.728H342.52L344.936 39.496H344.968L347.288 32.728H348.728L345.128 42.104Z" fill="black"/>
<defs>
<clipPath id="clip0_133_5184">
<rect width="19" height="25" fill="white" transform="translate(208 13.5)"/>
</clipPath>
</defs>
</svg>
