<svg width="146" height="178" viewBox="0 0 146 178" fill="none" xmlns="http://www.w3.org/2000/svg">
<path fill-rule="evenodd" clip-rule="evenodd" d="M54.9373 47.0415H91.0626L95.4583 91.9582H50.5416L54.9373 47.0415Z" stroke="black" stroke-width="0.5" stroke-linecap="round" stroke-linejoin="round"/>
<path d="M61.8256 53.3301C61.8256 53.3301 59.935 69.8635 72.9588 69.6634C85.9846 69.4592 84.092 53.3301 84.092 53.3301" stroke="black" stroke-width="0.5" stroke-linecap="round" stroke-linejoin="round"/>
<path d="M23.9244 118.576H24.7084L20.1164 125.216V130H19.4124V125.216L14.8524 118.576H15.6524L19.7804 124.624L23.9244 118.576ZM36.9403 124.288C36.9403 125.12 36.8176 125.904 36.5723 126.64C36.327 127.365 35.9696 128 35.5003 128.544C35.0416 129.077 34.4763 129.499 33.8043 129.808C33.1323 130.117 32.3696 130.272 31.5163 130.272C30.663 130.272 29.895 130.117 29.2123 129.808C28.5403 129.499 27.9696 129.077 27.5003 128.544C27.0416 128 26.6896 127.365 26.4443 126.64C26.199 125.904 26.0763 125.12 26.0763 124.288C26.0763 123.456 26.199 122.677 26.4443 121.952C26.6896 121.216 27.0416 120.581 27.5003 120.048C27.9696 119.504 28.5403 119.077 29.2123 118.768C29.895 118.459 30.663 118.304 31.5163 118.304C32.3696 118.304 33.1323 118.459 33.8043 118.768C34.4763 119.077 35.0416 119.504 35.5003 120.048C35.9696 120.581 36.327 121.216 36.5723 121.952C36.8176 122.677 36.9403 123.456 36.9403 124.288ZM26.7803 124.288C26.7803 125.024 26.887 125.717 27.1003 126.368C27.3136 127.019 27.623 127.589 28.0283 128.08C28.4336 128.56 28.9296 128.944 29.5163 129.232C30.103 129.52 30.7696 129.664 31.5163 129.664C32.263 129.664 32.9243 129.52 33.5003 129.232C34.087 128.944 34.583 128.56 34.9883 128.08C35.3936 127.589 35.703 127.019 35.9163 126.368C36.1296 125.717 36.2363 125.024 36.2363 124.288C36.2363 123.552 36.1296 122.859 35.9163 122.208C35.703 121.557 35.3936 120.992 34.9883 120.512C34.583 120.021 34.087 119.632 33.5003 119.344C32.9243 119.056 32.263 118.912 31.5163 118.912C30.7696 118.912 30.103 119.056 29.5163 119.344C28.9296 119.632 28.4336 120.021 28.0283 120.512C27.623 120.992 27.3136 121.557 27.1003 122.208C26.887 122.859 26.7803 123.552 26.7803 124.288ZM41.1217 118.576V125.424C41.1217 125.648 41.1324 125.909 41.1537 126.208C41.175 126.507 41.2284 126.816 41.3137 127.136C41.399 127.445 41.5164 127.755 41.6657 128.064C41.8257 128.363 42.039 128.635 42.3057 128.88C42.5724 129.115 42.8977 129.307 43.2817 129.456C43.6764 129.595 44.151 129.664 44.7057 129.664C45.4097 129.664 45.9964 129.568 46.4657 129.376C46.9457 129.173 47.3297 128.891 47.6177 128.528C47.9164 128.155 48.1297 127.707 48.2577 127.184C48.3857 126.661 48.4497 126.075 48.4497 125.424V118.576H49.1537V125.424C49.1537 126.107 49.079 126.741 48.9297 127.328C48.791 127.915 48.551 128.427 48.2097 128.864C47.8684 129.301 47.4097 129.648 46.8337 129.904C46.2684 130.149 45.559 130.272 44.7057 130.272C44.0337 130.272 43.4577 130.187 42.9777 130.016C42.4977 129.845 42.0977 129.627 41.7777 129.36C41.4684 129.083 41.223 128.768 41.0417 128.416C40.8604 128.064 40.7217 127.712 40.6257 127.36C40.5297 126.997 40.471 126.651 40.4497 126.32C40.4284 125.979 40.4177 125.68 40.4177 125.424V118.576H41.1217ZM53.1377 118.576H57.9057C58.407 118.576 58.8764 118.629 59.3137 118.736C59.751 118.832 60.135 118.997 60.4657 119.232C60.7964 119.456 61.0524 119.755 61.2337 120.128C61.4257 120.501 61.5217 120.965 61.5217 121.52C61.5217 122.288 61.303 122.939 60.8657 123.472C60.439 123.995 59.8417 124.32 59.0737 124.448V124.48C59.5964 124.544 60.007 124.683 60.3057 124.896C60.615 125.109 60.8444 125.371 60.9937 125.68C61.143 125.989 61.239 126.331 61.2817 126.704C61.3244 127.077 61.3457 127.451 61.3457 127.824C61.3457 128.048 61.3457 128.267 61.3457 128.48C61.3457 128.693 61.3564 128.896 61.3777 129.088C61.399 129.269 61.431 129.44 61.4737 129.6C61.527 129.76 61.5964 129.893 61.6817 130H60.8977C60.7484 129.733 60.663 129.424 60.6417 129.072C60.631 128.709 60.6257 128.336 60.6257 127.952C60.6257 127.568 60.6097 127.189 60.5777 126.816C60.5457 126.432 60.4444 126.091 60.2737 125.792C60.103 125.493 59.831 125.253 59.4577 125.072C59.095 124.891 58.5777 124.8 57.9057 124.8H53.8417V130H53.1377V118.576ZM57.9057 124.192C58.3217 124.192 58.7057 124.144 59.0577 124.048C59.4204 123.941 59.7297 123.781 59.9857 123.568C60.2417 123.355 60.4444 123.083 60.5937 122.752C60.743 122.421 60.8177 122.027 60.8177 121.568C60.8177 121.141 60.7377 120.779 60.5777 120.48C60.4177 120.171 60.2044 119.92 59.9377 119.728C59.671 119.536 59.3617 119.397 59.0097 119.312C58.6577 119.227 58.2897 119.184 57.9057 119.184H53.8417V124.192H57.9057ZM71.6089 118.576H76.1849C76.8676 118.576 77.4383 118.661 77.8969 118.832C78.3556 119.003 78.7236 119.227 79.0009 119.504C79.2783 119.781 79.4756 120.101 79.5929 120.464C79.7209 120.816 79.7849 121.173 79.7849 121.536C79.7849 121.845 79.7316 122.139 79.6249 122.416C79.5183 122.693 79.3636 122.939 79.1609 123.152C78.9689 123.365 78.7343 123.547 78.4569 123.696C78.1903 123.835 77.8916 123.925 77.5609 123.968L77.5929 124C77.6676 123.989 77.8436 124.021 78.1209 124.096C78.3983 124.171 78.6863 124.315 78.9849 124.528C79.2943 124.731 79.5663 125.019 79.8009 125.392C80.0463 125.755 80.1689 126.224 80.1689 126.8C80.1689 127.323 80.0729 127.781 79.8809 128.176C79.6889 128.571 79.4169 128.907 79.0649 129.184C78.7236 129.451 78.3076 129.653 77.8169 129.792C77.3263 129.931 76.7823 130 76.1849 130H71.6089V118.576ZM76.1849 123.76C77.1556 123.76 77.8809 123.547 78.3609 123.12C78.8409 122.683 79.0809 122.112 79.0809 121.408C79.0809 120.992 79.0009 120.645 78.8409 120.368C78.6809 120.08 78.4676 119.851 78.2009 119.68C77.9343 119.499 77.6249 119.371 77.2729 119.296C76.9316 119.221 76.5689 119.184 76.1849 119.184H72.3129V123.76H76.1849ZM76.1849 129.392C77.2089 129.392 78.0089 129.179 78.5849 128.752C79.1716 128.315 79.4649 127.664 79.4649 126.8C79.4649 126.309 79.3636 125.909 79.1609 125.6C78.9583 125.28 78.6969 125.029 78.3769 124.848C78.0676 124.667 77.7156 124.544 77.3209 124.48C76.9369 124.405 76.5583 124.368 76.1849 124.368H72.3129V129.392H76.1849ZM87.0491 118.576H87.8171L92.3291 130H91.5771L90.1371 126.336H84.6651L83.2091 130H82.4571L87.0491 118.576ZM89.9131 125.728L87.4651 119.264H87.4331L84.8891 125.728H89.9131ZM94.4142 124.352C94.4142 123.541 94.5315 122.773 94.7662 122.048C95.0115 121.312 95.3635 120.667 95.8222 120.112C96.2809 119.557 96.8409 119.12 97.5022 118.8C98.1742 118.469 98.9422 118.304 99.8062 118.304C100.393 118.304 100.953 118.389 101.486 118.56C102.02 118.731 102.494 118.981 102.91 119.312C103.337 119.643 103.694 120.043 103.982 120.512C104.27 120.981 104.462 121.515 104.558 122.112H103.886C103.62 121.109 103.14 120.325 102.446 119.76C101.753 119.195 100.878 118.912 99.8222 118.912C99.0542 118.912 98.3769 119.061 97.7902 119.36C97.2035 119.659 96.7129 120.059 96.3182 120.56C95.9235 121.061 95.6249 121.643 95.4222 122.304C95.2195 122.955 95.1182 123.637 95.1182 124.352C95.1182 125.077 95.2142 125.765 95.4062 126.416C95.6089 127.056 95.9022 127.616 96.2862 128.096C96.6809 128.576 97.1715 128.96 97.7582 129.248C98.3449 129.525 99.0329 129.664 99.8222 129.664C100.505 129.664 101.118 129.552 101.662 129.328C102.206 129.104 102.665 128.789 103.038 128.384C103.422 127.979 103.71 127.493 103.902 126.928C104.094 126.352 104.174 125.712 104.142 125.008H99.9342V124.4H104.75V130H104.142V127.568H104.11C103.972 127.984 103.764 128.363 103.486 128.704C103.209 129.035 102.878 129.317 102.494 129.552C102.121 129.776 101.7 129.952 101.23 130.08C100.772 130.208 100.292 130.272 99.7902 130.272C98.9262 130.272 98.1582 130.117 97.4862 129.808C96.8249 129.499 96.2649 129.077 95.8062 128.544C95.3475 128.011 95.0009 127.387 94.7662 126.672C94.5315 125.947 94.4142 125.173 94.4142 124.352ZM115.083 118.576H115.787V130H115.083V118.576ZM127.227 121.84C127.206 121.349 127.099 120.923 126.907 120.56C126.726 120.197 126.475 119.893 126.155 119.648C125.835 119.403 125.451 119.221 125.003 119.104C124.566 118.976 124.086 118.912 123.563 118.912C123.243 118.912 122.897 118.949 122.523 119.024C122.161 119.099 121.819 119.232 121.499 119.424C121.19 119.605 120.934 119.856 120.731 120.176C120.529 120.485 120.427 120.875 120.427 121.344C120.427 121.803 120.539 122.176 120.763 122.464C120.987 122.752 121.281 122.987 121.643 123.168C122.006 123.339 122.422 123.477 122.891 123.584C123.361 123.691 123.835 123.792 124.315 123.888C124.806 123.984 125.281 124.101 125.739 124.24C126.209 124.368 126.625 124.549 126.987 124.784C127.361 125.008 127.659 125.307 127.883 125.68C128.107 126.043 128.219 126.501 128.219 127.056C128.219 127.653 128.091 128.155 127.835 128.56C127.579 128.965 127.254 129.296 126.859 129.552C126.475 129.808 126.043 129.989 125.563 130.096C125.094 130.213 124.641 130.272 124.203 130.272C123.531 130.272 122.902 130.197 122.315 130.048C121.729 129.909 121.217 129.68 120.779 129.36C120.342 129.029 119.995 128.608 119.739 128.096C119.494 127.584 119.377 126.96 119.387 126.224H120.091C120.059 126.853 120.15 127.387 120.363 127.824C120.577 128.251 120.87 128.603 121.243 128.88C121.627 129.157 122.075 129.36 122.587 129.488C123.099 129.605 123.638 129.664 124.203 129.664C124.545 129.664 124.907 129.621 125.291 129.536C125.686 129.451 126.043 129.307 126.363 129.104C126.694 128.901 126.966 128.635 127.179 128.304C127.403 127.973 127.515 127.557 127.515 127.056C127.515 126.576 127.403 126.187 127.179 125.888C126.955 125.579 126.657 125.333 126.283 125.152C125.921 124.96 125.505 124.811 125.035 124.704C124.577 124.587 124.102 124.48 123.611 124.384C123.131 124.288 122.657 124.176 122.187 124.048C121.718 123.92 121.302 123.749 120.939 123.536C120.577 123.312 120.283 123.029 120.059 122.688C119.835 122.336 119.723 121.888 119.723 121.344C119.723 120.8 119.835 120.336 120.059 119.952C120.294 119.557 120.593 119.243 120.955 119.008C121.329 118.763 121.745 118.587 122.203 118.48C122.662 118.363 123.115 118.304 123.563 118.304C124.161 118.304 124.715 118.373 125.227 118.512C125.75 118.64 126.203 118.848 126.587 119.136C126.982 119.413 127.297 119.776 127.531 120.224C127.766 120.672 127.899 121.211 127.931 121.84H127.227ZM45.5133 138.576H53.1933V139.184H46.2173V143.76H52.7773V144.368H46.2173V149.392H53.2733V150H45.5133V138.576ZM56.4364 138.576H57.4444L61.9084 149.216H61.9404L66.3564 138.576H67.3644V150H66.6604V139.44H66.6284L62.2764 150H61.5724L57.1724 139.44H57.1404V150H56.4364V138.576ZM71.3439 138.576H76.2079C76.5279 138.576 76.8799 138.613 77.2639 138.688C77.6586 138.763 78.0213 138.917 78.3519 139.152C78.6933 139.376 78.9759 139.701 79.1999 140.128C79.4239 140.544 79.5359 141.093 79.5359 141.776C79.5359 142.779 79.2266 143.552 78.6079 144.096C77.9893 144.64 77.1039 144.912 75.9519 144.912H72.0479V150H71.3439V138.576ZM72.0479 144.304H76.0639C76.5759 144.304 77.0079 144.229 77.3599 144.08C77.7226 143.92 78.0106 143.717 78.2239 143.472C78.4373 143.227 78.5919 142.955 78.6879 142.656C78.7839 142.357 78.8319 142.059 78.8319 141.76C78.8319 141.547 78.7999 141.296 78.7359 141.008C78.6719 140.709 78.5439 140.427 78.3519 140.16C78.1599 139.883 77.8879 139.653 77.5359 139.472C77.1946 139.28 76.7359 139.184 76.1599 139.184H72.0479V144.304ZM81.5351 139.184V138.576H90.2871V139.184H86.2551V150H85.5511V139.184H81.5351ZM101.043 138.576H101.827L97.2352 145.216V150H96.5312V145.216L91.9712 138.576H92.7712L96.8992 144.624L101.043 138.576Z" fill="black"/>
</svg>
